<svg width="1036" height="1036" viewBox="0 0 1036 1036" fill="none" xmlns="http://www.w3.org/2000/svg">
<g clip-path="url(#clip0)">
<path d="M531.365 408.318C534.427 415.403 542.652 418.665 549.737 415.603C556.822 412.542 560.084 404.316 557.023 397.231C553.961 390.146 545.736 386.884 538.651 389.946C531.566 393.007 528.304 401.233 531.365 408.318Z" fill="white" fill-opacity="0.05"/>
<path d="M358.906 289.402C361.967 296.487 370.193 299.749 377.278 296.688C384.363 293.626 387.625 285.401 384.563 278.316C381.502 271.23 373.276 267.969 366.191 271.03C359.106 274.092 355.844 282.317 358.906 289.402Z" fill="white" fill-opacity="0.05"/>
<path d="M299.109 493.81C302.17 500.895 310.396 504.157 317.481 501.095C324.566 498.034 327.828 489.808 324.766 482.723C321.705 475.638 313.479 472.376 306.394 475.438C299.309 478.499 296.047 486.725 299.109 493.81Z" fill="white" fill-opacity="0.05"/>
<path d="M485.213 649.278C488.275 656.363 496.5 659.625 503.586 656.563C510.671 653.502 513.932 645.277 510.871 638.191C507.809 631.106 499.584 627.844 492.499 630.906C485.414 633.967 482.152 642.193 485.213 649.278Z" fill="white" fill-opacity="0.05"/>
<path d="M688.629 637.144C691.691 644.229 699.916 647.491 707.001 644.43C714.087 641.368 717.348 633.143 714.287 626.057C711.225 618.972 703 615.71 695.915 618.772C688.83 621.833 685.568 630.059 688.629 637.144Z" fill="white" fill-opacity="0.05"/>
<path d="M738.435 717.177C741.497 724.262 749.722 727.524 756.808 724.462C763.893 721.401 767.155 713.175 764.093 706.09C761.032 699.005 752.806 695.743 745.721 698.804C738.636 701.866 735.374 710.091 738.435 717.177Z" fill="white" fill-opacity="0.05"/>
<path d="M683.806 416.241C686.867 423.326 695.093 426.588 702.178 423.526C709.263 420.465 712.525 412.239 709.463 405.154C706.402 398.069 698.176 394.807 691.091 397.869C684.006 400.93 680.744 409.155 683.806 416.241Z" fill="white" fill-opacity="0.05"/>
<path d="M331.261 597.239C339.739 616.859 362.585 625.794 382.054 617.381C401.675 608.903 410.675 586.208 402.197 566.588C393.719 546.967 371.024 537.967 351.403 546.445C331.783 554.923 322.783 577.618 331.261 597.239ZM379.558 576.37C382.623 583.463 379.366 591.677 372.272 594.742C365.179 597.807 356.965 594.55 353.9 587.457C350.835 580.363 354.092 572.15 361.186 569.084C368.279 566.019 376.493 569.276 379.558 576.37Z" fill="white" fill-opacity="0.05"/>
<path d="M408.508 373.112C396.834 346.096 365.278 333.582 338.262 345.256C311.246 356.929 298.732 388.486 310.405 415.502C322.079 442.518 353.485 455.097 380.652 443.358C407.668 431.685 420.182 400.128 408.508 373.112ZM333.044 405.72C326.784 391.231 333.555 374.155 348.044 367.895C362.533 361.634 379.608 368.405 385.869 382.894C392.13 397.383 385.358 414.459 370.869 420.719C356.38 426.98 339.305 420.209 333.044 405.72Z" fill="white" fill-opacity="0.05"/>
<path d="M567.779 354.978C578.018 378.674 605.684 389.645 629.38 379.406C653.075 369.167 664.046 341.501 653.808 317.806C643.569 294.11 615.903 283.139 592.207 293.378C568.511 303.616 557.54 331.283 567.779 354.978ZM631.169 327.588C635.994 338.756 630.766 351.941 619.597 356.767C608.429 361.593 595.244 356.365 590.418 345.196C585.592 334.027 590.821 320.843 601.989 316.017C613.158 311.191 626.343 316.419 631.169 327.588Z" fill="white" fill-opacity="0.05"/>
<path d="M492.886 318.025C512.506 309.547 521.506 286.852 513.028 267.232C504.55 247.611 481.855 238.612 462.234 247.09C442.614 255.568 433.614 278.263 442.092 297.883C450.57 317.504 473.265 326.503 492.886 318.025ZM464.731 288.101C461.666 281.007 464.923 272.794 472.017 269.729C479.11 266.664 487.324 269.921 490.389 277.014C493.454 284.108 490.197 292.321 483.103 295.386C476.01 298.452 467.796 295.194 464.731 288.101Z" fill="white" fill-opacity="0.05"/>
<path d="M651.356 734.93C652.34 731.818 651.942 728.408 650.335 725.52L515.306 474.37L792.382 548.976C798.907 550.813 805.761 546.777 807.447 540.317C826.943 468.131 821.099 390.775 790.521 322.494C760.158 254.299 706.817 198.003 640.007 164.005C572.356 130.55 494.845 120.699 421.707 136.719C348.201 152.719 282.112 194.172 235.742 253.075C188.658 311.569 163.056 384.961 163.366 459.873C163.582 503.482 172.69 546.114 189.581 585.204C201.841 613.579 218.328 640.127 238.433 663.858C286.919 721.356 354.156 760.9 427.515 775.233C501.325 789.37 578.557 777.849 645.355 742.18C648.243 740.574 650.373 738.041 651.356 734.93ZM493.926 443.13C489.432 441.848 484.472 443.633 481.31 447.506C478.299 451.315 477.775 456.735 480.119 460.917L596.328 677.214C494.038 727.324 372.894 702.296 298.928 614.434C224.475 522.126 223.727 394.388 297.054 303.777L297.139 303.561C367.635 212.203 494.942 182.27 599.601 232.152C704.395 283.588 758.572 396.12 732.479 507.337L493.926 443.13ZM257.297 647.826C165.656 540.198 164.771 380.638 255.282 268.453C343.118 156.707 500.44 122.042 629.278 186.015C693.581 218.768 742.121 272.66 769.381 335.748C794.229 393.251 801.417 458.384 786.969 521.942L756.786 513.849C770.645 455.562 764.308 393.642 738.628 339.185C712.361 283.37 667.125 237.542 610.783 209.947C554.832 183.257 490.779 176.367 430.632 190.535C370.117 204.683 316.033 239.516 278.247 288.44C239.165 336.851 217.886 397.449 218.48 459.342C218.804 495.74 226.511 531.813 240.989 565.319C250.967 588.411 264.114 610.133 280.085 630.099C280.15 630.25 280.15 630.25 280.15 630.25C319.928 677.54 375.249 710.234 435.862 722.013C493.991 733.433 554.912 725.2 608.223 698.94L622.833 726.12C496.978 786.77 348.268 755.564 257.297 647.826Z" fill="white" fill-opacity="0.05"/>
<path d="M764.126 840.055C841.546 797.467 899.834 724.28 924.321 639.191C925.24 635.928 924.841 632.519 923.235 629.63C921.629 626.742 918.945 624.678 915.683 623.759L610.886 541.787C606.025 540.485 601.065 542.27 598.054 546.078C595.279 549.605 594.711 554.508 596.472 558.583C596.602 558.885 596.798 559.337 596.928 559.639L747.315 835.139C748.921 838.027 751.454 840.157 754.716 841.076C757.763 841.909 761.238 841.661 764.126 840.055ZM788.74 623.446C791.805 630.54 788.548 638.753 781.455 641.818C774.361 644.883 766.148 641.626 763.082 634.533C760.017 627.439 763.274 619.226 770.368 616.161C777.461 613.095 785.675 616.353 788.74 623.446ZM632.396 573.329L746.605 603.861C737.311 614.683 734.378 630.279 740.443 644.315C748.921 663.936 771.616 672.935 791.237 664.457C808.141 657.153 817.09 639.316 813.93 622.054L843.163 630.02C824.504 685.904 787.767 731.868 736.417 763.907L632.396 573.329ZM748.247 785.482C805.676 750.1 846.39 698.835 867.038 636.361L896.789 644.281C873.595 714.125 825.609 774.263 762.812 812.144L748.247 785.482Z" fill="white" fill-opacity="0.05"/>
</g>
<defs>
<clipPath id="clip0">
<rect width="787.538" height="787.538" fill="white" transform="translate(722.935) rotate(66.6309)"/>
</clipPath>
</defs>
</svg>
