<svg width="90" height="10" viewBox="0 0 90 10" fill="none" xmlns="http://www.w3.org/2000/svg">
<path d="M88.8998 1.36561C87.6678 0.138614 84.8418 -0.834386 83.7338 1.08061C83.4438 1.58261 84.2198 2.03562 84.5098 1.53462C84.9608 0.754617 86.0618 0.833615 86.8018 1.08562C87.6598 1.37862 88.4748 2.01261 88.8748 2.83761C89.4258 3.97461 88.9028 5.45362 88.0048 6.26462C87.1948 6.99662 86.0458 7.28462 84.9858 7.38461C83.9758 7.47961 82.9548 7.43161 81.9478 7.30161C82.2288 7.03461 82.4728 6.72961 82.6618 6.38061C83.5678 4.70961 82.9478 2.68761 81.5718 1.47761C79.8778 -0.0113864 77.4468 -0.0363857 75.3798 0.545614C74.8238 0.701614 75.0598 1.56961 75.6188 1.41261C77.5198 0.877615 79.8228 0.877616 81.2628 2.43162C82.4188 3.67962 82.5508 5.55862 81.2368 6.73762C81.0848 6.87362 80.9218 6.99562 80.7498 7.10662C79.6648 6.90062 78.5918 6.62062 77.5468 6.26362C76.1988 5.80262 74.9448 5.13761 73.6938 4.46161C70.1318 2.53861 66.4098 0.267613 62.2198 0.318613C61.1078 0.332613 59.7658 0.519615 58.7038 1.08661C56.7028 0.557615 54.6168 0.338616 52.5618 0.653616C50.7438 0.931616 48.8468 1.72661 47.8058 3.31861C46.8068 4.84661 46.7278 7.23162 48.2968 8.42362C49.5938 9.40762 51.6758 9.28561 52.5828 7.84262C52.8918 7.35161 52.1138 6.89962 51.8068 7.38862C51.0058 8.66262 48.9588 8.26862 48.2958 7.07162C47.3758 5.40862 48.4528 3.43061 49.9098 2.51761C51.6238 1.44461 53.8088 1.27761 55.7758 1.45761C56.4458 1.51861 57.1108 1.62861 57.7688 1.77561C57.4778 2.07361 57.2418 2.42661 57.0848 2.84561C56.4958 4.42661 57.6598 6.54162 59.4728 6.27962C60.0428 6.19762 59.8008 5.33062 59.2338 5.41261C58.4848 5.52061 57.9878 4.71961 57.8658 4.08562C57.7038 3.24162 58.1738 2.51261 58.8608 2.05461C59.9778 2.37361 61.0708 2.78661 62.1308 3.24061C66.0578 4.92561 69.7168 7.29462 73.8918 8.36062C75.5788 8.79162 77.3278 9.03061 79.0518 8.68962C79.6758 8.56562 80.3118 8.35861 80.8888 8.05261C81.5288 8.15861 82.1718 8.23862 82.8108 8.28662C85.1058 8.45962 88.0208 8.20362 89.3558 6.03562C89.7198 5.44462 89.9198 4.75762 89.9868 4.06962C90.0868 3.04962 89.6118 2.07461 88.8998 1.36561ZM76.9398 7.95561C74.8858 7.87061 72.8368 7.19361 70.9478 6.42161C67.2578 4.91261 63.8468 2.75562 60.0588 1.49362C61.5258 1.03062 63.2518 1.16262 64.6788 1.46062C68.7398 2.31062 72.0938 4.87461 75.8178 6.54561C76.9238 7.04161 78.0948 7.43561 79.2898 7.72761C78.5158 7.92961 77.6948 7.98761 76.9398 7.95561Z" fill="#F97316"/>
<path d="M32.6478 0.777617C32.1818 0.864617 31.7228 0.972615 31.2678 1.09361C30.6218 0.748615 29.8878 0.534614 29.2208 0.434614C25.0418 -0.191386 21.1438 1.82262 17.5918 3.75862C16.1558 4.54162 14.7238 5.39361 13.1958 5.98961C12.1048 6.41461 10.9728 6.74161 9.8298 6.98961C9.6428 7.03061 9.4548 7.06862 9.2668 7.10462C8.7048 6.75262 8.2248 6.27261 7.9778 5.64361C7.6228 4.73861 7.8188 3.75761 8.3298 2.95461C9.6238 0.921615 12.2788 0.820615 14.3788 1.41162C14.9368 1.56862 15.1748 0.701615 14.6178 0.544615C12.7688 0.024615 10.5778 -0.0413864 8.9268 1.08861C7.5498 2.03161 6.6278 3.70762 6.9718 5.39562C7.1338 6.19062 7.5028 6.81662 8.0048 7.30562C7.3218 7.39162 6.6338 7.43862 5.9458 7.43062C4.8068 7.41862 3.6018 7.26862 2.5968 6.69462C1.5108 6.07362 0.6878 4.72161 0.9248 3.43561C1.1158 2.39961 2.0088 1.58861 2.9398 1.18361C3.7128 0.847615 4.9868 0.670613 5.4868 1.53361C5.7768 2.03461 6.5538 1.58161 6.2628 1.07961C5.3008 -0.582385 2.9048 -0.0343866 1.6358 0.908613C0.9148 1.44461 0.3028 2.18661 0.0847996 3.07461C-0.0932004 3.80261 0.0257993 4.59562 0.285799 5.29162C1.1888 7.70362 3.8468 8.34561 6.1728 8.32961C7.1398 8.32261 8.1178 8.23061 9.0878 8.06661C10.7338 8.90261 12.9718 8.94762 14.6228 8.67362C18.8598 7.96862 22.5938 5.69662 26.4218 3.89162C27.8878 3.20062 29.4818 2.52661 31.1268 2.04761C31.7188 2.44861 32.1868 3.03361 32.1648 3.78261C32.1438 4.49961 31.6228 5.53362 30.7638 5.40962C30.1978 5.32762 29.9538 6.19361 30.5248 6.27661C32.1578 6.51261 33.2408 4.84562 33.0348 3.34862C32.9468 2.70762 32.6368 2.18562 32.2058 1.76562C34.4248 1.25362 36.7028 1.16162 38.8568 1.92362C40.7158 2.58162 42.4808 4.32961 41.9368 6.46961C41.7208 7.32161 41.1058 7.92762 40.2478 8.11362C39.4888 8.27761 38.6228 8.07161 38.1918 7.38561C37.8848 6.89661 37.1068 7.34761 37.4158 7.83961C38.2248 9.12561 39.9508 9.35661 41.2488 8.70561C42.8028 7.92561 43.2118 5.98261 42.7158 4.42861C41.4358 0.416614 36.0728 0.137617 32.6478 0.777617ZM20.5688 5.75762C18.6168 6.65662 16.5878 7.43061 14.4628 7.79461C13.2418 8.00361 11.9328 8.04862 10.7228 7.72462C11.6728 7.48562 12.6048 7.18461 13.4988 6.83161C17.0948 5.41161 20.2098 2.97861 23.9278 1.82361C25.7768 1.24961 28.0098 0.899615 29.9218 1.49661C26.6768 2.57661 23.6698 4.32962 20.5688 5.75762Z" fill="#F97316"/>
</svg>
