<svg xmlns="http://www.w3.org/2000/svg" xmlns:xlink="http://www.w3.org/1999/xlink" version="1.1" x="0px" y="0px" viewBox="0 0 100 125" enable-background="new 0 0 100 100" xml:space="preserve"><g><path fill="none" d="M28.928,47.293c-3.718,1.155-6.833,3.588-10.429,5.008c-0.894,0.353-1.826,0.655-2.776,0.893   c1.21,0.324,2.52,0.279,3.74,0.07c2.126-0.364,4.155-1.138,6.106-2.037c3.101-1.428,6.108-3.181,9.353-4.261   C33.009,46.369,30.777,46.719,28.928,47.293z"/><path fill="none" d="M69.679,46.93c-1.426-0.298-3.152-0.429-4.62,0.033c3.788,1.262,7.198,3.419,10.889,4.928   c1.888,0.772,3.937,1.449,5.992,1.534c0.756,0.031,1.577-0.027,2.35-0.229c-1.195-0.292-2.366-0.686-3.472-1.182   C77.094,50.344,73.74,47.779,69.679,46.93z"/><path d="M93.9,46.835c-1.232-1.227-4.058-2.2-5.166-0.285c-0.29,0.502,0.486,0.955,0.776,0.454c0.451-0.78,1.552-0.701,2.292-0.449   c0.858,0.293,1.673,0.927,2.073,1.752c0.551,1.137,0.028,2.616-0.87,3.427c-0.81,0.732-1.959,1.02-3.019,1.12   c-1.01,0.095-2.031,0.047-3.038-0.083c0.281-0.267,0.525-0.572,0.714-0.921c0.906-1.671,0.286-3.693-1.09-4.903   c-1.694-1.489-4.125-1.514-6.192-0.932c-0.556,0.156-0.32,1.024,0.239,0.867c1.901-0.535,4.204-0.535,5.644,1.019   c1.156,1.248,1.288,3.127-0.026,4.306c-0.152,0.136-0.315,0.258-0.487,0.369c-1.085-0.206-2.158-0.486-3.203-0.843   c-1.348-0.461-2.602-1.126-3.853-1.802c-3.562-1.923-7.284-4.194-11.474-4.143c-1.112,0.014-2.454,0.201-3.516,0.768   c-2.001-0.529-4.087-0.748-6.142-0.433c-1.818,0.278-3.715,1.073-4.756,2.665c-0.999,1.528-1.078,3.913,0.491,5.105   c1.297,0.984,3.379,0.862,4.286-0.581c0.309-0.491-0.469-0.943-0.776-0.454c-0.801,1.274-2.848,0.88-3.511-0.317   c-0.92-1.663,0.157-3.641,1.614-4.554c1.714-1.073,3.899-1.24,5.866-1.06c0.67,0.061,1.335,0.171,1.993,0.318   c-0.291,0.298-0.527,0.651-0.684,1.07c-0.589,1.581,0.575,3.696,2.388,3.434c0.57-0.082,0.328-0.949-0.239-0.867   c-0.749,0.108-1.246-0.693-1.368-1.327c-0.162-0.844,0.308-1.573,0.995-2.031c1.117,0.319,2.21,0.732,3.27,1.186   c3.927,1.685,7.586,4.054,11.761,5.12c1.687,0.431,3.436,0.67,5.16,0.329c0.624-0.124,1.26-0.331,1.837-0.637   c0.64,0.106,1.283,0.186,1.922,0.234c2.295,0.173,5.21-0.083,6.545-2.251c0.364-0.591,0.564-1.278,0.631-1.966   C95.087,48.519,94.612,47.544,93.9,46.835z M81.94,53.425c-2.054-0.085-4.103-0.762-5.992-1.534   c-3.69-1.509-7.101-3.666-10.889-4.928c1.467-0.463,3.193-0.331,4.62-0.033c4.061,0.85,7.415,3.414,11.139,5.085   c1.106,0.496,2.277,0.89,3.472,1.182C83.516,53.399,82.695,53.457,81.94,53.425z"/><path d="M37.648,46.247c-0.466,0.087-0.925,0.195-1.38,0.316c-0.646-0.345-1.38-0.559-2.047-0.659   c-4.179-0.626-8.077,1.388-11.629,3.324c-1.436,0.783-2.868,1.635-4.396,2.231c-1.091,0.425-2.223,0.752-3.366,1   c-0.187,0.041-0.375,0.079-0.563,0.115c-0.562-0.352-1.042-0.832-1.289-1.461c-0.355-0.905-0.159-1.886,0.352-2.689   c1.294-2.033,3.949-2.134,6.049-1.543c0.558,0.157,0.796-0.71,0.239-0.867c-1.849-0.52-4.04-0.586-5.691,0.544   c-1.377,0.943-2.299,2.619-1.955,4.307c0.162,0.795,0.531,1.421,1.033,1.91c-0.683,0.086-1.371,0.133-2.059,0.125   c-1.139-0.012-2.344-0.162-3.349-0.736c-1.086-0.621-1.909-1.973-1.672-3.259c0.191-1.036,1.084-1.847,2.015-2.252   c0.773-0.336,2.047-0.513,2.547,0.35c0.29,0.501,1.067,0.048,0.776-0.454c-0.962-1.662-3.358-1.114-4.627-0.171   c-0.721,0.536-1.333,1.278-1.551,2.166c-0.178,0.728-0.059,1.521,0.201,2.217c0.903,2.412,3.561,3.054,5.887,3.038   c0.967-0.007,1.945-0.099,2.915-0.263c1.646,0.836,3.884,0.881,5.535,0.607c4.237-0.705,7.971-2.977,11.799-4.782   c1.466-0.691,3.06-1.365,4.705-1.844c0.592,0.401,1.06,0.986,1.038,1.735c-0.021,0.717-0.542,1.751-1.401,1.627   c-0.566-0.082-0.81,0.784-0.239,0.867c1.633,0.236,2.716-1.431,2.51-2.928c-0.088-0.641-0.398-1.163-0.829-1.583   c2.219-0.512,4.497-0.604,6.651,0.158c1.859,0.658,3.624,2.406,3.08,4.546c-0.216,0.852-0.831,1.458-1.689,1.644   c-0.759,0.164-1.625-0.042-2.056-0.728c-0.307-0.489-1.085-0.038-0.776,0.454c0.809,1.286,2.535,1.517,3.833,0.866   c1.554-0.78,1.963-2.723,1.467-4.277C46.436,45.886,41.073,45.607,37.648,46.247z M25.569,51.227   c-1.952,0.899-3.981,1.673-6.106,2.037c-1.221,0.209-2.53,0.254-3.74-0.07c0.95-0.239,1.882-0.54,2.776-0.893   c3.596-1.42,6.711-3.853,10.429-5.008c1.849-0.574,4.082-0.924,5.994-0.327C31.677,48.046,28.67,49.799,25.569,51.227z"/></g><text x="0" y="115" fill="#000000" font-size="5px" font-weight="bold" font-family="'Helvetica Neue', Helvetica, Arial-Unicode, Arial, Sans-serif">Created by Vladimir Belochkin</text><text x="0" y="120" fill="#000000" font-size="5px" font-weight="bold" font-family="'Helvetica Neue', Helvetica, Arial-Unicode, Arial, Sans-serif">from the Noun Project</text></svg>